<svg id="SvgjsSvg1006" width="860" height="558.59375" xmlns="http://www.w3.org/2000/svg" version="1.1" xmlns:xlink="http://www.w3.org/1999/xlink" xmlns:svgjs="http://svgjs.com/svgjs"><defs id="SvgjsDefs1007"><marker id="SvgjsMarker1034" markerWidth="16" markerHeight="12" refX="16" refY="6" viewBox="0 0 16 12" orient="auto" markerUnits="userSpaceOnUse"><path id="SvgjsPath1035" d="M0,2 L14,6 L0,11 L0,2" fill="#323232" stroke="#323232" stroke-width="2"></path></marker><marker id="SvgjsMarker1038" markerWidth="16" markerHeight="12" refX="16" refY="6" viewBox="0 0 16 12" orient="auto" markerUnits="userSpaceOnUse"><path id="SvgjsPath1039" d="M0,2 L14,6 L0,11 L0,2" fill="#323232" stroke="#323232" stroke-width="2"></path></marker><marker id="SvgjsMarker1042" markerWidth="16" markerHeight="12" refX="16" refY="6" viewBox="0 0 16 12" orient="auto" markerUnits="userSpaceOnUse"><path id="SvgjsPath1043" d="M0,2 L14,6 L0,11 L0,2" fill="#323232" stroke="#323232" stroke-width="2"></path></marker><marker id="SvgjsMarker1046" markerWidth="16" markerHeight="12" refX="16" refY="6" viewBox="0 0 16 12" orient="auto" markerUnits="userSpaceOnUse"><path id="SvgjsPath1047" d="M0,2 L14,6 L0,11 L0,2" fill="#323232" stroke="#323232" stroke-width="2"></path></marker><marker id="SvgjsMarker1068" markerWidth="16" markerHeight="12" refX="16" refY="6" viewBox="0 0 16 12" orient="auto" markerUnits="userSpaceOnUse"><path id="SvgjsPath1069" d="M0,2 L14,6 L0,11 L0,2" fill="#323232" stroke="#323232" stroke-width="2"></path></marker><marker id="SvgjsMarker1072" markerWidth="16" markerHeight="12" refX="16" refY="6" viewBox="0 0 16 12" orient="auto" markerUnits="userSpaceOnUse"><path id="SvgjsPath1073" d="M0,2 L14,6 L0,11 L0,2" fill="#323232" stroke="#323232" stroke-width="2"></path></marker><marker id="SvgjsMarker1076" markerWidth="16" markerHeight="12" refX="16" refY="6" viewBox="0 0 16 12" orient="auto" markerUnits="userSpaceOnUse"><path id="SvgjsPath1077" d="M0,2 L14,6 L0,11 L0,2" fill="#323232" stroke="#323232" stroke-width="2"></path></marker><marker id="SvgjsMarker1080" markerWidth="16" markerHeight="12" refX="16" refY="6" viewBox="0 0 16 12" orient="auto" markerUnits="userSpaceOnUse"><path id="SvgjsPath1081" d="M0,2 L14,6 L0,11 L0,2" fill="#323232" stroke="#323232" stroke-width="2"></path></marker><marker id="SvgjsMarker1084" markerWidth="16" markerHeight="12" refX="16" refY="6" viewBox="0 0 16 12" orient="auto" markerUnits="userSpaceOnUse"><path id="SvgjsPath1085" d="M0,2 L14,6 L0,11 L0,2" fill="#323232" stroke="#323232" stroke-width="2"></path></marker><marker id="SvgjsMarker1088" markerWidth="16" markerHeight="12" refX="16" refY="6" viewBox="0 0 16 12" orient="auto" markerUnits="userSpaceOnUse"><path id="SvgjsPath1089" d="M0,2 L14,6 L0,11 L0,2" fill="#323232" stroke="#323232" stroke-width="2"></path></marker><marker id="SvgjsMarker1092" markerWidth="16" markerHeight="12" refX="16" refY="6" viewBox="0 0 16 12" orient="auto" markerUnits="userSpaceOnUse"><path id="SvgjsPath1093" d="M0,2 L14,6 L0,11 L0,2" fill="#323232" stroke="#323232" stroke-width="2"></path></marker><marker id="SvgjsMarker1096" markerWidth="16" markerHeight="12" refX="16" refY="6" viewBox="0 0 16 12" orient="auto" markerUnits="userSpaceOnUse"><path id="SvgjsPath1097" d="M0,2 L14,6 L0,11 L0,2" fill="#323232" stroke="#323232" stroke-width="2"></path></marker><marker id="SvgjsMarker1100" markerWidth="16" markerHeight="12" refX="16" refY="6" viewBox="0 0 16 12" orient="auto" markerUnits="userSpaceOnUse"><path id="SvgjsPath1101" d="M0,2 L14,6 L0,11 L0,2" fill="#323232" stroke="#323232" stroke-width="2"></path></marker><marker id="SvgjsMarker1104" markerWidth="16" markerHeight="12" refX="16" refY="6" viewBox="0 0 16 12" orient="auto" markerUnits="userSpaceOnUse"><path id="SvgjsPath1105" d="M0,2 L14,6 L0,11 L0,2" fill="#323232" stroke="#323232" stroke-width="2"></path></marker><marker id="SvgjsMarker1108" markerWidth="16" markerHeight="12" refX="16" refY="6" viewBox="0 0 16 12" orient="auto" markerUnits="userSpaceOnUse"><path id="SvgjsPath1109" d="M0,2 L14,6 L0,11 L0,2" fill="#323232" stroke="#323232" stroke-width="2"></path></marker><marker id="SvgjsMarker1112" markerWidth="16" markerHeight="12" refX="16" refY="6" viewBox="0 0 16 12" orient="auto" markerUnits="userSpaceOnUse"><path id="SvgjsPath1113" d="M0,2 L14,6 L0,11 L0,2" fill="#323232" stroke="#323232" stroke-width="2"></path></marker><marker id="SvgjsMarker1116" markerWidth="16" markerHeight="12" refX="16" refY="6" viewBox="0 0 16 12" orient="auto" markerUnits="userSpaceOnUse"><path id="SvgjsPath1117" d="M0,2 L14,6 L0,11 L0,2" fill="#323232" stroke="#323232" stroke-width="2"></path></marker><marker id="SvgjsMarker1126" markerWidth="16" markerHeight="12" refX="16" refY="6" viewBox="0 0 16 12" orient="auto" markerUnits="userSpaceOnUse"><path id="SvgjsPath1127" d="M0,2 L14,6 L0,11 L0,2" fill="#323232" stroke="#323232" stroke-width="2"></path></marker></defs><g id="SvgjsG1008" transform="translate(405,142)"><path id="SvgjsPath1009" d="M 0 0L 170 0L 170 47L 0 47Z" stroke="#323232" stroke-width="2" fill-opacity="1" fill="#ffffff"></path><g id="SvgjsG1010"><text id="SvgjsText1011" font-family="Arial" text-anchor="middle" font-size="17px" width="70" fill="#323232" font-weight="400" align="middle" anchor="middle" family="Arial" size="17px" weight="400" font-style="" y="10.45" transform="rotate(0)"><tspan id="SvgjsTspan1012" dy="21" x="85"><tspan id="SvgjsTspan1013" style="text-decoration:;">end point</tspan></tspan></text></g></g><g id="SvgjsG1014" transform="translate(235,261)"><path id="SvgjsPath1015" d="M 0 0L 170 0L 170 47L 0 47Z" stroke="#323232" stroke-width="2" fill-opacity="1" fill="#ffffff"></path><g id="SvgjsG1016"><text id="SvgjsText1017" font-family="Arial" text-anchor="middle" font-size="17px" width="76" fill="#323232" font-weight="400" align="middle" anchor="middle" family="Arial" size="17px" weight="400" font-style="" y="10.45" transform="rotate(0)"><tspan id="SvgjsTspan1018" dy="21" x="85"><tspan id="SvgjsTspan1019" style="text-decoration:;">data node</tspan></tspan></text></g></g><g id="SvgjsG1020" transform="translate(445,261)"><path id="SvgjsPath1021" d="M 0 0L 170 0L 170 47L 0 47Z" stroke="#323232" stroke-width="2" fill-opacity="1" fill="#ffffff"></path><g id="SvgjsG1022"><text id="SvgjsText1023" font-family="Arial" text-anchor="middle" font-size="17px" width="76" fill="#323232" font-weight="400" align="middle" anchor="middle" family="Arial" size="17px" weight="400" font-style="" y="10.45" transform="rotate(0)"><tspan id="SvgjsTspan1024" dy="21" x="85"><tspan id="SvgjsTspan1025" style="text-decoration:;">data node</tspan></tspan></text></g></g><g id="SvgjsG1026" transform="translate(659,261)"><path id="SvgjsPath1027" d="M 0 0L 170 0L 170 47L 0 47Z" stroke="#323232" stroke-width="2" fill-opacity="1" fill="#ffffff"></path><g id="SvgjsG1028"><text id="SvgjsText1029" font-family="Arial" text-anchor="middle" font-size="17px" width="76" fill="#323232" font-weight="400" align="middle" anchor="middle" family="Arial" size="17px" weight="400" font-style="" y="10.45" transform="rotate(0)"><tspan id="SvgjsTspan1030" dy="21" x="85"><tspan id="SvgjsTspan1031" style="text-decoration:;">data node</tspan></tspan></text></g></g><g id="SvgjsG1032"><path id="SvgjsPath1033" d="M659 284.5L637 284.5L637 284.5L615 284.5" stroke="#323232" stroke-width="2" fill="none" marker-end="url(#SvgjsMarker1034)"></path></g><g id="SvgjsG1036"><path id="SvgjsPath1037" d="M615 284.5L637 284.5L637 284.5L659 284.5" stroke="#323232" stroke-width="2" fill="none" marker-end="url(#SvgjsMarker1038)"></path></g><g id="SvgjsG1040"><path id="SvgjsPath1041" d="M445 284.5L425 284.5L425 284.5L405 284.5" stroke="#323232" stroke-width="2" fill="none" marker-end="url(#SvgjsMarker1042)"></path></g><g id="SvgjsG1044"><path id="SvgjsPath1045" d="M405 284.5L425 284.5L425 284.5L445 284.5" stroke="#323232" stroke-width="2" fill="none" marker-end="url(#SvgjsMarker1046)"></path></g><g id="SvgjsG1048" transform="translate(235,387)"><path id="SvgjsPath1049" d="M 0 0L 170 0L 170 47L 0 47Z" stroke="#323232" stroke-width="2" fill-opacity="1" fill="#ffffff"></path><g id="SvgjsG1050"><text id="SvgjsText1051" font-family="Arial" text-anchor="middle" font-size="17px" width="115" fill="#323232" font-weight="400" align="middle" anchor="middle" family="Arial" size="17px" weight="400" font-style="" y="10.45" transform="rotate(0)"><tspan id="SvgjsTspan1052" dy="21" x="85"><tspan id="SvgjsTspan1053" style="text-decoration:;">calcluator node</tspan></tspan></text></g></g><g id="SvgjsG1054" transform="translate(451,387)"><path id="SvgjsPath1055" d="M 0 0L 170 0L 170 47L 0 47Z" stroke="#323232" stroke-width="2" fill-opacity="1" fill="#ffffff"></path><g id="SvgjsG1056"><text id="SvgjsText1057" font-family="Arial" text-anchor="middle" font-size="17px" width="94" fill="#323232" font-weight="400" align="middle" anchor="middle" family="Arial" size="17px" weight="400" font-style="" y="10.45" transform="rotate(0)"><tspan id="SvgjsTspan1058" dy="21" x="85"><tspan id="SvgjsTspan1059" style="text-decoration:;">control node</tspan></tspan></text></g></g><g id="SvgjsG1060" transform="translate(665,387)"><path id="SvgjsPath1061" d="M 0 0L 170 0L 170 47L 0 47Z" stroke="#323232" stroke-width="2" fill-opacity="1" fill="#ffffff"></path><g id="SvgjsG1062"><text id="SvgjsText1063" font-family="Arial" text-anchor="middle" font-size="17px" width="97" fill="#323232" font-weight="400" align="middle" anchor="middle" family="Arial" size="17px" weight="400" font-style="" y="10.45" transform="rotate(0)"><tspan id="SvgjsTspan1064" dy="21" x="85"><tspan id="SvgjsTspan1065" style="text-decoration:;">config center</tspan></tspan></text></g></g><g id="SvgjsG1066"><path id="SvgjsPath1067" d="M490 189L490 225L320 225L320 261" stroke="#323232" stroke-width="2" fill="none" marker-end="url(#SvgjsMarker1068)"></path></g><g id="SvgjsG1070"><path id="SvgjsPath1071" d="M405 165.5C 321.9954218130108 165.5 151.9954218130108 284.5 235 284.5" stroke-dasharray="10,5,3,5" stroke="#323232" stroke-width="2" fill="none" marker-end="url(#SvgjsMarker1072)"></path></g><g id="SvgjsG1074"><path id="SvgjsPath1075" d="M665 410.5C 647.4 410.5 638.6 410.5 621 410.5" stroke="#323232" stroke-width="2" fill="none" marker-end="url(#SvgjsMarker1076)"></path></g><g id="SvgjsG1078"><path id="SvgjsPath1079" d="M621 410.5C 638.6 410.5 647.4 410.5 665 410.5" stroke="#323232" stroke-width="2" fill="none" marker-end="url(#SvgjsMarker1080)"></path></g><g id="SvgjsG1082"><path id="SvgjsPath1083" d="M744 308C 744 396.9988763974018 536 298.0011236025982 536 387" stroke="#323232" stroke-width="2" fill="none" marker-end="url(#SvgjsMarker1084)"></path></g><g id="SvgjsG1086"><path id="SvgjsPath1087" d="M530 308C 530 339.6910081884436 536 355.3089918115564 536 387" stroke="#323232" stroke-width="2" fill="none" marker-end="url(#SvgjsMarker1088)"></path></g><g id="SvgjsG1090"><path id="SvgjsPath1091" d="M320 308C 320 399.9973912673615 536 295.0026087326385 536 387" stroke="#323232" stroke-width="2" fill="none" marker-end="url(#SvgjsMarker1092)"></path></g><g id="SvgjsG1094"><path id="SvgjsPath1095" d="M320 387C 320 355.4 320 339.6 320 308" stroke-dasharray="8,5" stroke="#323232" stroke-width="2" fill="none" marker-end="url(#SvgjsMarker1096)"></path></g><g id="SvgjsG1098"><path id="SvgjsPath1099" d="M320 387C 320.00000000000006 297.2527994865578 530 397.7472005134422 530 308" stroke-dasharray="8,5" stroke="#323232" stroke-width="2" fill="none" marker-end="url(#SvgjsMarker1100)"></path></g><g id="SvgjsG1102"><path id="SvgjsPath1103" d="M320 387C 320.00000000000006 214.48124739611637 744 480.5187526038836 744 308" stroke-dasharray="8,5" stroke="#323232" stroke-width="2" fill="none" marker-end="url(#SvgjsMarker1104)"></path></g><g id="SvgjsG1106"><path id="SvgjsPath1107" d="M451 410.5C 432.6 410.5 423.4 410.5 405 410.5" stroke-dasharray="8,5" stroke="#323232" stroke-width="2" fill="none" marker-end="url(#SvgjsMarker1108)"></path></g><g id="SvgjsG1110"><path id="SvgjsPath1111" d="M536 434C 536 533.7123863920626 490 288.7123863920626 490 189" stroke-dasharray="8,5" stroke="#323232" stroke-width="2" fill="none" marker-end="url(#SvgjsMarker1112)"></path></g><g id="SvgjsG1114"><path id="SvgjsPath1115" d="M25 37C 56.2 37 71.8 37 103 37" stroke="#323232" stroke-width="2" fill="none" marker-end="url(#SvgjsMarker1116)"></path></g><g id="SvgjsG1118" transform="translate(103,25)"><path id="SvgjsPath1119" d="M 0 0L 96 0L 96 24L 0 24Z" stroke="none" fill="none"></path><g id="SvgjsG1120"><text id="SvgjsText1121" font-family="微软雅黑" text-anchor="middle" font-size="13px" width="48" fill="#323232" font-weight="400" align="middle" anchor="middle" family="微软雅黑" size="13px" weight="400" font-style="" y="2.05" transform="rotate(0)"><tspan id="SvgjsTspan1122" dy="16" x="48"><tspan id="SvgjsTspan1123" style="text-decoration:;">data flow</tspan></tspan></text></g></g><g id="SvgjsG1124"><path id="SvgjsPath1125" d="M26 56C 55.2 56 69.8 56 99 56" stroke-dasharray="8,5" stroke="#323232" stroke-width="2" fill="none" marker-end="url(#SvgjsMarker1126)"></path></g><g id="SvgjsG1128" transform="translate(103,45)"><path id="SvgjsPath1129" d="M 0 0L 96 0L 96 24L 0 24Z" stroke="none" fill="none"></path><g id="SvgjsG1130"><text id="SvgjsText1131" font-family="微软雅黑" text-anchor="middle" font-size="13px" width="63" fill="#323232" font-weight="400" align="middle" anchor="middle" family="微软雅黑" size="13px" weight="400" font-style="" y="2.05" transform="rotate(0)"><tspan id="SvgjsTspan1132" dy="16" x="48"><tspan id="SvgjsTspan1133" style="text-decoration:;">contorl flow</tspan></tspan></text></g></g></svg>